<svg width="584" height="122" viewBox="0 0 584 122" fill="none" xmlns="http://www.w3.org/2000/svg">
<path d="M65.94 121.08L71.444 106.616L0.147995 70.264V59.256L54.932 31.352V41.592L15.892 61.048C14.356 61.816 12.9053 62.5413 11.54 63.224C10.0893 63.9067 8.97999 64.376 8.21199 64.632C8.97999 64.888 10.0893 65.3573 11.54 66.04C12.9053 66.7227 14.356 67.448 15.892 68.216L74.644 98.168L111.508 0.759995H122.26L114.452 21.624L188.052 59.256V70.264L133.268 98.168V88.184L172.308 68.728C174.015 67.8747 175.636 67.1067 177.172 66.424C178.793 65.7413 179.988 65.272 180.756 65.016C179.903 64.6747 178.665 64.1627 177.044 63.48C175.423 62.7973 173.844 62.072 172.308 61.304L111.124 30.072L76.692 121.08H65.94ZM216.29 107L240.994 13.56H254.434L279.01 107H268.77L262.242 81.656H233.058L226.658 107H216.29ZM235.106 72.952H260.066L252.13 41.72C250.85 36.5147 249.826 32.1627 249.058 28.664C248.29 25.08 247.821 22.776 247.65 21.752C247.479 22.776 247.01 25.08 246.242 28.664C245.474 32.1627 244.45 36.5147 243.17 41.72L235.106 72.952ZM327.856 108.28C321.968 108.28 317.189 106.701 313.52 103.544C309.936 100.301 308.144 95.9067 308.144 90.36L310.704 93.944H308.528V107H298.416V13.56H308.528V33.656L308.4 49.656H310.832L308.016 53.24C308.016 47.7787 309.851 43.4267 313.52 40.184C317.275 36.9413 322.053 35.32 327.856 35.32C334.939 35.32 340.571 37.6667 344.752 42.36C348.933 47.0533 351.024 53.4107 351.024 61.432V82.296C351.024 90.232 348.933 96.5467 344.752 101.24C340.571 105.933 334.939 108.28 327.856 108.28ZM324.656 99.448C329.776 99.448 333.744 98.04 336.56 95.224C339.461 92.408 340.912 88.0987 340.912 82.296V61.432C340.912 55.4587 339.461 51.1067 336.56 48.376C333.744 45.56 329.776 44.152 324.656 44.152C319.707 44.152 315.781 45.7307 312.88 48.888C309.979 51.96 308.528 56.2693 308.528 61.816V81.784C308.528 87.3307 309.979 91.6827 312.88 94.84C315.781 97.912 319.707 99.448 324.656 99.448ZM375.166 107V36.6H385.278V49.656H387.582L385.022 53.368C385.022 47.6507 386.729 43.2133 390.142 40.056C393.555 36.8987 398.291 35.32 404.35 35.32C411.347 35.32 416.937 37.5387 421.118 41.976C425.299 46.328 427.39 52.2587 427.39 59.768V107H417.278V61.432C417.278 55.8 415.87 51.4907 413.054 48.504C410.238 45.432 406.398 43.896 401.534 43.896C396.499 43.896 392.531 45.4747 389.63 48.632C386.729 51.7893 385.278 56.184 385.278 61.816V107H375.166ZM477.9 108.28C472.439 108.28 467.703 107.171 463.692 104.952C459.681 102.733 456.567 99.576 454.348 95.48C452.129 91.2987 451.02 86.392 451.02 80.76V62.84C451.02 57.1227 452.129 52.216 454.348 48.12C456.567 44.024 459.681 40.8667 463.692 38.648C467.703 36.4293 472.439 35.32 477.9 35.32C483.361 35.32 488.097 36.4293 492.108 38.648C496.119 40.7813 499.233 43.8533 501.452 47.864C503.671 51.7893 504.78 56.44 504.78 61.816V74.36H460.876V81.784C460.876 87.2453 462.412 91.5547 465.484 94.712C468.556 97.8693 472.695 99.448 477.9 99.448C482.337 99.448 486.007 98.552 488.908 96.76C491.809 94.8827 493.559 92.3653 494.156 89.208H504.268C503.5 95.096 500.727 99.7467 495.948 103.16C491.169 106.573 485.153 108.28 477.9 108.28ZM494.924 67.448V61.816C494.924 56.0987 493.431 51.6613 490.444 48.504C487.457 45.3467 483.276 43.768 477.9 43.768C472.524 43.768 468.343 45.3467 465.356 48.504C462.369 51.6613 460.876 56.0987 460.876 61.816V66.296H495.948L494.924 67.448ZM531.226 107V36.6H541.466V49.656H543.642L541.082 53.88C541.082 48.1627 542.789 43.64 546.202 40.312C549.615 36.984 554.351 35.32 560.41 35.32C567.834 35.32 573.509 37.5387 577.434 41.976C581.359 46.328 583.322 52.5147 583.322 60.536V66.68H573.21V60.536C573.21 55.0747 571.845 50.9787 569.114 48.248C566.469 45.5173 562.586 44.152 557.466 44.152C552.261 44.152 548.293 45.688 545.562 48.76C542.831 51.7467 541.466 56.0987 541.466 61.816V107H531.226Z" fill="#1A1A1A"/>
</svg>
